<svg width="20" height="21" viewBox="0 0 20 21" fill="none" xmlns="http://www.w3.org/2000/svg">
<path fill-rule="evenodd" clip-rule="evenodd" d="M15.5557 18.4046C13.9112 19.5034 11.9778 20.0899 10 20.0899C7.34881 20.0868 4.80708 19.0322 2.93239 17.1575C1.0577 15.2828 0.00312771 12.7411 0 10.0899C0 8.11205 0.586491 6.17865 1.68531 4.53415C2.78412 2.88966 4.34591 1.60793 6.17318 0.851054C8.00044 0.0941766 10.0111 -0.103857 11.9509 0.281996C13.8907 0.667849 15.6726 1.62026 17.0711 3.01879C18.4696 4.41731 19.422 6.19915 19.8079 8.13896C20.1937 10.0788 19.9957 12.0894 19.2388 13.9167C18.482 15.744 17.2002 17.3058 15.5557 18.4046ZM14.5456 3.28692C13.2001 2.38789 11.6182 1.90803 10 1.90803C7.8308 1.91044 5.75112 2.77322 4.21725 4.30709C2.68338 5.84096 1.82059 7.92065 1.81819 10.0899C1.81819 11.7081 2.29804 13.29 3.19707 14.6355C4.0961 15.9809 5.37393 17.0296 6.86897 17.6489C8.364 18.2682 10.0091 18.4302 11.5962 18.1145C13.1833 17.7988 14.6412 17.0195 15.7854 15.8753C16.9297 14.731 17.7089 13.2732 18.0246 11.6861C18.3403 10.0989 18.1783 8.45385 17.559 6.95881C16.9398 5.46378 15.8911 4.18595 14.5456 3.28692ZM7.27283 13.726C7.03177 13.726 6.80058 13.6303 6.6301 13.4598C6.45967 13.2894 6.36393 13.0582 6.36393 12.8171C6.36393 12.576 6.45967 12.3449 6.6301 12.1744L8.71465 10.0898L6.6301 8.00528C6.4645 7.83382 6.37287 7.60418 6.37494 7.36582C6.37702 7.12746 6.47262 6.89945 6.64118 6.73089C6.80973 6.56234 7.03774 6.46673 7.2761 6.46466C7.51446 6.46259 7.7441 6.55422 7.91556 6.71982L10.0001 8.80437L12.0847 6.71982C12.2561 6.55422 12.4858 6.46259 12.7241 6.46466C12.9625 6.46673 13.1905 6.56234 13.359 6.73089C13.5276 6.89945 13.6232 7.12746 13.6253 7.36582C13.6273 7.60418 13.5357 7.83382 13.3701 8.00528L11.2856 10.0898L13.3701 12.1744C13.5357 12.3458 13.6273 12.5755 13.6253 12.8138C13.6232 13.0522 13.5276 13.2802 13.359 13.4488C13.1905 13.6173 12.9625 13.7129 12.7241 13.715C12.4858 13.7171 12.2561 13.6254 12.0847 13.4598L10.0001 11.3753L7.91556 13.4598C7.74508 13.6303 7.51389 13.726 7.27283 13.726Z" fill="#FF614C"/>
</svg>
