<svg width="47" height="46" viewBox="0 0 47 46" fill="none" xmlns="http://www.w3.org/2000/svg">
<path d="M23.6984 0.0566406C19.1659 0.0566406 14.7352 1.40068 10.9666 3.91879C7.19797 6.43691 4.26068 10.016 2.52618 14.2035C0.791668 18.391 0.337841 22.9987 1.22209 27.4441C2.10633 31.8895 4.28893 35.9729 7.49389 39.1778C10.6988 42.3828 14.7822 44.5654 19.2276 45.4496C23.673 46.3339 28.2808 45.8801 32.4682 44.1455C36.6557 42.411 40.2348 39.4738 42.7529 35.7051C45.271 31.9365 46.6151 27.5058 46.6151 22.9733C46.6079 16.8976 44.1912 11.0728 39.895 6.77669C35.5989 2.48054 29.7741 0.0638083 23.6984 0.0566406ZM23.6984 41.7233C19.99 41.7233 16.3649 40.6236 13.2815 38.5634C10.1981 36.5031 7.79482 33.5747 6.37567 30.1486C4.95653 26.7225 4.58522 22.9525 5.30869 19.3154C6.03216 15.6782 7.81793 12.3373 10.4402 9.71505C13.0624 7.09282 16.4033 5.30706 20.0405 4.58358C23.6776 3.86011 27.4476 4.23142 30.8737 5.65057C34.2998 7.06971 37.2282 9.47294 39.2885 12.5564C41.3488 15.6398 42.4484 19.2649 42.4484 22.9733C42.4429 27.9444 40.4657 32.7104 36.9506 36.2255C33.4355 39.7406 28.6695 41.7178 23.6984 41.7233Z" fill="#55E586"/>
<path d="M32.7069 16.2297L21.6778 26.3401L16.8382 21.5005C16.646 21.3016 16.4161 21.1428 16.162 21.0337C15.9078 20.9245 15.6344 20.867 15.3578 20.8646C15.0812 20.8622 14.8068 20.9149 14.5508 21.0197C14.2948 21.1244 14.0622 21.2791 13.8665 21.4747C13.6709 21.6703 13.5162 21.9029 13.4115 22.159C13.3067 22.415 13.254 22.6893 13.2564 22.966C13.2588 23.2426 13.3163 23.516 13.4255 23.7701C13.5347 24.0243 13.6934 24.2542 13.8924 24.4464L20.1424 30.6964C20.522 31.0761 21.0336 31.2946 21.5704 31.3062C22.1073 31.3178 22.6279 31.1218 23.0236 30.7589L35.5236 19.3005C35.9308 18.927 36.173 18.407 36.1968 17.855C36.2207 17.3029 36.0242 16.764 35.6507 16.3568C35.2772 15.9496 34.7572 15.7074 34.2051 15.6836C33.6531 15.6597 33.1142 15.8562 32.7069 16.2297Z" fill="#55E586"/>
</svg>
